<svg width="30" height="24" viewBox="0 0 30 24" fill="none" xmlns="http://www.w3.org/2000/svg">
<g clip-path="url(#clip0)">
<path d="M13.0734 23.9766L10.214 23.1469C9.91401 23.0625 9.74526 22.7485 9.82964 22.4485L16.2281 0.40784C16.3125 0.10784 16.6265 -0.06091 16.9265 0.023465L19.7859 0.853153C20.0859 0.937528 20.2546 1.25159 20.1703 1.55159L13.7718 23.5922C13.6828 23.8922 13.3734 24.0657 13.0734 23.9766V23.9766ZM7.72964 18.7172L9.7687 16.5422C9.98433 16.3125 9.97026 15.9469 9.7312 15.736L5.48433 12L9.7312 8.26409C9.97026 8.05315 9.98901 7.68753 9.7687 7.45784L7.72964 5.28284C7.5187 5.05784 7.16245 5.04378 6.93276 5.2594L0.178076 11.5875C-0.0609863 11.8078 -0.0609863 12.1875 0.178076 12.4078L6.93276 18.7407C7.16245 18.9563 7.5187 18.9469 7.72964 18.7172V18.7172ZM23.0671 18.7453L29.8218 12.4125C30.0609 12.1922 30.0609 11.8125 29.8218 11.5922L23.0671 5.25472C22.8421 5.04378 22.4859 5.05315 22.2703 5.27815L20.2312 7.45315C20.0156 7.68284 20.0296 8.04847 20.2687 8.2594L24.5156 12L20.2687 15.736C20.0296 15.9469 20.0109 16.3125 20.2312 16.5422L22.2703 18.7172C22.4812 18.9469 22.8375 18.9563 23.0671 18.7453V18.7453Z" fill="black"/>
</g>
<defs>
<clipPath id="clip0">
<rect width="30" height="24" fill="white"/>
</clipPath>
</defs>
</svg>
